<svg id="Layer_2" data-name="Layer 2" xmlns="http://www.w3.org/2000/svg" viewBox="0 0 1366 768"><defs><style>.cls-1{fill:#1098ad;}.cls-2{fill:#333;}.cls-3{fill:#f8f8f8;}</style></defs><path class="cls-1" d="M101.13,480.38,202.84,314.82a69,69,0,0,1,58.68-32.88l211.54-.32a41.4,41.4,0,0,0,37-22.89l38.25-76.49H285.07a190.44,190.44,0,0,0-164.51,94.51L26.88,437.41a184.55,184.55,0,0,0-25.13,93v1.24a47.87,47.87,0,0,0,47.8,48.07c73.7,0,213.84.06,283.47.06a41.4,41.4,0,0,0,41.4-41.41v-207H361.17a179.68,179.68,0,0,0-160.64,99.35l0,0h74.54a49.69,49.69,0,0,1-49.69,49.69Zm74.54-149.07h.22l-.22.33Z"/><polygon class="cls-2" points="173.89 334.31 173.67 334.64 173.67 334.31 173.89 334.31"/><path class="cls-3" d="M968.7,433.69H894.17V582.76H794.79V408.84a74.53,74.53,0,0,1,74.53-74.53h0A99.37,99.37,0,0,1,968.7,433.69Z"/><path class="cls-3" d="M993.55,582.76h99.38V527.53a69,69,0,0,0-69-69H993.55Z"/><path class="cls-3" d="M993.55,334.31v58A41.41,41.41,0,0,0,1035,433.69h58v-58a41.41,41.41,0,0,0-41.41-41.41Z"/><path class="cls-3" d="M1366,483.77h0a49.3,49.3,0,0,1-49.3,49.3H1284a41.41,41.41,0,0,1-29.1-12l-11.82-11.68a15,15,0,0,1,10.55-25.66h0a13.18,13.18,0,0,0,13.17-13.18V458.53A24.84,24.84,0,0,0,1242,433.69h0a24.84,24.84,0,0,0-24.85,24.84V582.76h-99.38V403.31a69,69,0,0,1,69-69h43a69,69,0,0,1,57.49,30.85l29.22,44Z"/><path class="cls-3" d="M1242,284.62H838.94a69,69,0,0,0-69,69V582.76H670.56V353.62a69,69,0,0,0-69-69H521.49l38.25-76.49a41.4,41.4,0,0,1,37-22.89h483A182.12,182.12,0,0,1,1242,284.62Z"/><polygon class="cls-2" points="173.89 334.31 173.67 334.64 173.67 334.31 173.89 334.31"/><path class="cls-1" d="M548.34,433.69H512a15,15,0,0,0-15,15V457a15,15,0,0,1-15,15H412.75a15,15,0,0,1-15-15V403.31a69,69,0,0,1,69-69h110a69,69,0,0,1,69,69V513.76a69,69,0,0,1-69,69h-110a69,69,0,0,1-69-69V498.38a15,15,0,0,1,15-15H533.34a15,15,0,0,0,15-15V433.69"/></svg>